<?xml version="1.0" encoding="UTF-8" standalone="no"?><!DOCTYPE svg PUBLIC "-//W3C//DTD SVG 1.1//EN" "http://www.w3.org/Graphics/SVG/1.1/DTD/svg11.dtd"><svg width="100%" height="100%" viewBox="0 0 1067 1067" version="1.1" xmlns="http://www.w3.org/2000/svg" xmlns:xlink="http://www.w3.org/1999/xlink" xml:space="preserve" xmlns:serif="http://www.serif.com/" style="fill-rule:evenodd;clip-rule:evenodd;stroke-linejoin:round;stroke-miterlimit:2;"><g><path d="M766.516,5.861l-467.56,-0c-39.376,-0 -71.41,32.034 -71.41,71.397l0,910.944c0,39.363 32.034,71.409 71.41,71.409l467.56,-0c39.375,-0 71.409,-32.034 71.409,-71.409l0,-910.944c-0.011,-39.363 -32.034,-71.397 -71.409,-71.397Zm-515.541,145.382l563.534,0l-0,745.47l-563.534,-0l-0,-745.47Zm47.981,-121.966l467.56,0c26.461,0 47.993,21.52 47.993,47.981l-0,50.569l-563.534,-0l-0,-50.569c-0,-26.461 21.52,-47.981 47.981,-47.981Zm467.56,1006.92l-467.56,0c-26.461,0 -47.993,-21.531 -47.993,-47.992l0,-68.073l563.534,0l-0,68.073c-0,26.461 -21.52,47.992 -47.981,47.992Z" style="fill:#fff;fill-rule:nonzero;"/><circle cx="532.736" cy="978.121" r="23.417" style="fill:#fff;"/><path d="M558.131,90.793l-129.435,0c-6.463,0 -11.709,-5.245 -11.709,-11.708c0,-6.463 5.246,-11.709 11.709,-11.709l129.435,0c6.475,0 11.709,5.246 11.709,11.709c-0,6.463 -5.234,11.708 -11.709,11.708Z" style="fill:#fff;fill-rule:nonzero;"/><circle cx="613.406" cy="79.038" r="17.563" style="fill:#fff;"/></g></svg>