<?xml version="1.0" encoding="UTF-8" standalone="no"?><!DOCTYPE svg PUBLIC "-//W3C//DTD SVG 1.1//EN" "http://www.w3.org/Graphics/SVG/1.1/DTD/svg11.dtd"><svg width="100%" height="100%" viewBox="0 0 4446 4446" version="1.1" xmlns="http://www.w3.org/2000/svg" xmlns:xlink="http://www.w3.org/1999/xlink" xml:space="preserve" xmlns:serif="http://www.serif.com/" style="fill-rule:evenodd;clip-rule:evenodd;stroke-linejoin:round;stroke-miterlimit:2;"><g><text x="1458.2px" y="2155.58px" style="font-family:'GillSansMT', 'Gill Sans MT', sans-serif;font-size:1449.38px;">@</text><path d="M3380.41,1125.76l0,156.655l509.076,420.474l-1363.8,1126.44c-18.408,13.158 -174.065,121.631 -302.762,121.631c-128.665,-0 -284.277,-108.419 -302.717,-121.598l-1363.85,-1126.48l509.076,-420.476l0,-156.653l-642.366,530.567l0.007,0.008c-13.399,11.083 -21.939,27.829 -21.939,46.554l-0,2348.53c-0,15.165 5.59,29.025 14.821,39.63l0.902,1.013c4.312,4.747 9.23,8.656 14.536,11.705l0.898,0.507c8.66,4.801 18.627,7.536 29.233,7.536l3522.8,-0c10.606,-0 20.574,-2.735 29.233,-7.536l0.899,-0.507c5.306,-3.051 10.224,-6.96 14.535,-11.705l0.902,-1.013c9.232,-10.605 14.822,-24.465 14.822,-39.63l-0,-2348.53c-0,-18.725 -8.541,-35.471 -21.939,-46.554l0.006,-0.008l-642.366,-530.567Zm-2750.94,2865.27l3186.9,-0l-1258.18,-1039.21c-67.835,41.529 -210.786,119.098 -333.3,119.919c0,-0 -1.967,0.006 -1.967,0.006c-122.956,0 -267.071,-78.175 -335.268,-119.925l-1258.18,1039.21Zm2027.98,-1113.87l1266.48,1046.06l0,-2092.12l-1266.48,1046.06Zm-2135.54,-1046.06l0,2092.12l1266.48,-1046.06l-1266.48,-1046.06Zm880.587,-983.743l189.663,0l327.994,-270.909c17.001,-12.065 34.577,-23.328 52.456,-34.041c21.393,-12.818 43.295,-24.808 65.714,-35.74c29.613,-14.441 60.191,-27.133 91.774,-36.598c25.248,-7.565 51.272,-13.12 77.623,-14.767c47.372,-2.962 94.58,8.75 138.705,25.063c35.315,13.057 69.357,29.486 102.218,47.82c26.438,14.752 52.292,30.705 76.989,48.23l328.036,270.942l189.667,0l-442.263,-365.291c-1.067,-0.881 -2.164,-1.725 -3.289,-2.531c0,-0 -207.124,-145.499 -374.867,-145.499c-167.743,-0 -374.868,145.499 -374.868,145.499c-1.125,0.806 -2.222,1.65 -3.289,2.531l-442.263,365.291Z"/><path d="M3440.8,2206.14l0,-1358.79c0,-33.353 -27.038,-60.39 -60.391,-60.39l-2314.98,-0c-33.353,-0 -60.391,27.037 -60.391,60.39l0,1358.79l120.782,0l-0,-1298.4c-0,0 1835.45,0 2194.2,0c-0,0 -0,1298.4 -0,1298.4l120.781,0Z"/></g></svg>