<?xml version="1.0" encoding="UTF-8" standalone="no"?><!DOCTYPE svg PUBLIC "-//W3C//DTD SVG 1.1//EN" "http://www.w3.org/Graphics/SVG/1.1/DTD/svg11.dtd"><svg width="100%" height="100%" viewBox="0 0 4446 4446" version="1.1" xmlns="http://www.w3.org/2000/svg" xmlns:xlink="http://www.w3.org/1999/xlink" xml:space="preserve" xmlns:serif="http://www.serif.com/" style="fill-rule:evenodd;clip-rule:evenodd;stroke-linejoin:round;stroke-miterlimit:2;"><g><path d="M423.061,995.175l3599.71,0l-0.006,0.008c13.398,11.083 21.939,27.829 21.939,46.554l-0,2348.53c-0,15.166 -5.59,29.026 -14.822,39.63l-0.902,1.013c-4.311,4.746 -9.229,8.654 -14.535,11.705l-0.899,0.507c-8.659,4.802 -18.627,7.536 -29.233,7.536l-3522.8,-0c-10.606,-0 -20.573,-2.734 -29.233,-7.536l-0.898,-0.507c-5.306,-3.049 -10.224,-6.958 -14.536,-11.705l-0.902,-1.013c-9.231,-10.604 -14.821,-24.464 -14.821,-39.63l-0,-2348.53c-0,-18.725 8.54,-35.471 21.939,-46.554l-0.007,-0.008Zm206.406,2334.7l3186.9,0l-1258.18,-1039.21c-67.835,41.528 -210.786,119.097 -333.3,119.918c0,0 -1.967,0.007 -1.967,0.007c-122.956,-0 -267.071,-78.175 -335.268,-119.925l-1258.18,1039.21Zm2027.98,-1113.87l1266.48,1046.06l0,-2092.12l-1266.48,1046.06Zm-2135.54,-1046.06l0,2092.12l1266.48,-1046.06l-1266.48,-1046.06Zm141.931,-39.425l1256.36,1037.7c18.44,13.178 174.052,121.597 302.717,121.597c128.697,0 284.354,-108.473 302.762,-121.63l1256.31,-1037.66l-3118.15,-0Z" style="fill:#fff;"/></g></svg>