<?xml version="1.0" encoding="UTF-8" standalone="no"?><!DOCTYPE svg PUBLIC "-//W3C//DTD SVG 1.1//EN" "http://www.w3.org/Graphics/SVG/1.1/DTD/svg11.dtd"><svg width="100%" height="100%" viewBox="0 0 14742 18821" version="1.1" xmlns="http://www.w3.org/2000/svg" xmlns:xlink="http://www.w3.org/1999/xlink" xml:space="preserve" xmlns:serif="http://www.serif.com/" style="fill-rule:evenodd;clip-rule:evenodd;stroke-linejoin:round;stroke-miterlimit:2;"><g><path d="M3731.05,6169.91l1.466,2.377l1.496,2.359l5216.51,8344.17c12.888,21.396 27.875,41.756 44.909,60.753c21.007,23.525 44.388,44.132 69.546,61.69l2668.61,1952.14c133.292,97.506 312.52,104.037 452.555,16.492c140.036,-87.546 212.663,-251.529 183.387,-414.062l-586.199,-3254.42c-4.476,-28.272 -12.014,-56.303 -22.724,-83.624c-10.101,-25.935 -22.749,-50.413 -37.583,-73.182l-6522.9,-10433.8c-130.013,-209.32 -312.587,-260.957 -556.57,-128.367l-2087.98,1305.34c-189.138,118.244 -246.61,367.426 -128.367,556.564l1303.86,2085.61Zm7361.57,7493.53l-1076.34,672.892l1379.28,1008.97l-302.944,-1681.87Zm-5058,-8454.04l4793.16,7666.99c-0,-0 -1403.06,877.147 -1403.06,877.147l-4793.16,-7666.99l1403.06,-877.147Zm-428.197,-684.93l-1403.06,877.147l-877.139,-1403.05l1403.06,-877.149l877.141,1403.05Z" style="fill:#fff;"/></g></svg>