<?xml version="1.0" encoding="UTF-8" standalone="no"?><!DOCTYPE svg PUBLIC "-//W3C//DTD SVG 1.1//EN" "http://www.w3.org/Graphics/SVG/1.1/DTD/svg11.dtd"><svg width="100%" height="100%" viewBox="0 0 849 1084" version="1.1" xmlns="http://www.w3.org/2000/svg" xmlns:xlink="http://www.w3.org/1999/xlink" xml:space="preserve" xmlns:serif="http://www.serif.com/" style="fill-rule:evenodd;clip-rule:evenodd;stroke-linecap:round;stroke-linejoin:round;stroke-miterlimit:1.5;"><g><path d="M824.731,250.408l-227.058,-227.058l-574.323,-0l-0,1037.08l801.381,0l0,-810.023Z" style="fill:none;stroke:#fff;stroke-width:46.7px;"/><path d="M597.673,250.408l227.058,-0l-227.058,-227.058l0,227.058Z" style="fill:none;stroke:#fff;stroke-width:46.7px;"/></g><g><path d="M136.913,400.995l517.125,517.126l-517.125,-0l-0,-517.126Z" style="fill:none;stroke:#fff;stroke-width:46.7px;"/><path d="M215.193,643.604l205.433,205.434l-205.433,-0l0,-205.434Z" style="fill:none;stroke:#fff;stroke-width:46.7px;"/><g><path d="M255.33,521.845l-32.518,32.517l8.13,8.13l32.517,-32.517l-8.129,-8.13Z" style="fill:#fff;"/><path d="M222.812,489.328l-32.517,32.517l8.129,8.13l32.518,-32.518l-8.13,-8.129Z" style="fill:#fff;"/><path d="M287.847,554.362l-32.517,32.518l8.129,8.129l32.517,-32.517l-8.129,-8.13Z" style="fill:#fff;"/></g><g><path d="M316.997,583.273l-32.517,32.517l8.129,8.13l32.517,-32.518l-8.129,-8.129Z" style="fill:#fff;"/><path d="M382.031,648.308l-32.517,32.517l8.129,8.129l32.518,-32.517l-8.13,-8.129Z" style="fill:#fff;"/><path d="M349.514,615.79l-32.517,32.518l8.129,8.129l32.517,-32.517l-8.129,-8.13Z" style="fill:#fff;"/><path d="M414.549,680.825l-32.518,32.517l8.13,8.13l32.517,-32.518l-8.129,-8.129Z" style="fill:#fff;"/></g><g><path d="M443.459,709.975l-32.517,32.517l8.129,8.13l32.518,-32.518l-8.13,-8.129Z" style="fill:#fff;"/><path d="M508.494,775.01l-32.517,32.517l8.129,8.129l32.517,-32.517l-8.129,-8.129Z" style="fill:#fff;"/><path d="M475.977,742.492l-32.518,32.518l8.13,8.129l32.517,-32.517l-8.129,-8.13Z" style="fill:#fff;"/><path d="M541.011,807.527l-32.517,32.517l8.129,8.129l32.518,-32.517l-8.13,-8.129Z" style="fill:#fff;"/></g><g><path d="M570.161,836.437l-32.517,32.518l8.129,8.129l32.518,-32.517l-8.13,-8.13Z" style="fill:#fff;"/></g></g><g><path d="M409.148,130.162l-77.987,48.755l243.774,389.934l77.987,-48.755l-243.774,-389.934Z" style="fill:none;stroke:#fff;stroke-width:46.7px;"/><path d="M574.935,568.851l99.937,73.106l-21.95,-121.861" style="fill:none;stroke:#fff;stroke-width:46.7px;"/><path d="M379.915,256.904l77.987,-48.755" style="fill:none;stroke:#fff;stroke-width:46.7px;"/></g></svg>